<?xml version="1.0" encoding="UTF-8"?>
<svg xmlns="http://www.w3.org/2000/svg" xmlns:xlink="http://www.w3.org/1999/xlink" width="37.5pt" height="37.499999pt" viewBox="0 0 37.5 37.499999" version="1.2">
<defs>
<clipPath id="clip1">
  <path d="M 1.230469 19 L 36 19 L 36 36 L 1.230469 36 Z M 1.230469 19 "/>
</clipPath>
<clipPath id="clip2">
  <path d="M 1.230469 35 L 36.480469 35 L 36.480469 36.480469 L 1.230469 36.480469 Z M 1.230469 35 "/>
</clipPath>
<clipPath id="clip3">
  <path d="M 1.230469 1.230469 L 25 1.230469 L 25 33 L 1.230469 33 Z M 1.230469 1.230469 "/>
</clipPath>
<clipPath id="clip4">
  <path d="M 4 1.230469 L 25 1.230469 L 25 33 L 4 33 Z M 4 1.230469 "/>
</clipPath>
<clipPath id="clip5">
  <path d="M 1.230469 1.230469 L 11 1.230469 L 11 11 L 1.230469 11 Z M 1.230469 1.230469 "/>
</clipPath>
<clipPath id="clip6">
  <path d="M 1.230469 4 L 25 4 L 25 33 L 1.230469 33 Z M 1.230469 4 "/>
</clipPath>
<clipPath id="clip7">
  <path d="M 1.230469 4 L 10 4 L 10 11 L 1.230469 11 Z M 1.230469 4 "/>
</clipPath>
<clipPath id="clip8">
  <path d="M 1.230469 4 L 24 4 L 24 33 L 1.230469 33 Z M 1.230469 4 "/>
</clipPath>
<clipPath id="clip9">
  <path d="M 1.230469 1.230469 L 10 1.230469 L 10 10 L 1.230469 10 Z M 1.230469 1.230469 "/>
</clipPath>
<clipPath id="clip10">
  <path d="M 1.230469 1.230469 L 26 1.230469 L 26 34 L 1.230469 34 Z M 1.230469 1.230469 "/>
</clipPath>
<clipPath id="clip11">
  <path d="M 1.230469 1.230469 L 10 1.230469 L 10 11 L 1.230469 11 Z M 1.230469 1.230469 "/>
</clipPath>
<clipPath id="clip12">
  <path d="M 15 27 L 26 27 L 26 36.480469 L 15 36.480469 Z M 15 27 "/>
</clipPath>
<clipPath id="clip13">
  <path d="M 16 6 L 36.480469 6 L 36.480469 26 L 16 26 Z M 16 6 "/>
</clipPath>
</defs>
<g id="surface1">
<path style=" stroke:none;fill-rule:nonzero;fill:rgb(85.099792%,92.158508%,95.689392%);fill-opacity:1;" d="M 23.511719 10.492188 C 23.511719 10.414062 23.539062 10.347656 23.59375 10.289062 C 23.652344 10.234375 23.71875 10.207031 23.796875 10.207031 L 25.332031 10.207031 C 25.464844 10.207031 25.578125 10.253906 25.675781 10.347656 C 25.769531 10.441406 25.816406 10.554688 25.816406 10.6875 C 25.816406 10.820312 25.769531 10.933594 25.675781 11.027344 C 25.578125 11.121094 25.464844 11.167969 25.332031 11.167969 L 24.542969 11.167969 C 24.464844 11.167969 24.394531 11.195312 24.339844 11.253906 C 24.28125 11.308594 24.253906 11.375 24.253906 11.457031 C 24.253906 11.535156 24.226562 11.601562 24.171875 11.660156 C 24.113281 11.714844 24.046875 11.742188 23.96875 11.742188 L 22.429688 11.742188 C 22.296875 11.742188 22.183594 11.695312 22.089844 11.601562 C 21.996094 11.507812 21.949219 11.394531 21.949219 11.261719 C 21.949219 11.128906 21.996094 11.015625 22.089844 10.921875 C 22.183594 10.828125 22.296875 10.78125 22.429688 10.78125 L 23.199219 10.78125 C 23.285156 10.789062 23.355469 10.761719 23.417969 10.707031 C 23.480469 10.648438 23.511719 10.578125 23.511719 10.492188 Z M 23.511719 10.492188 "/>
<path style=" stroke:none;fill-rule:nonzero;fill:rgb(85.099792%,92.158508%,95.689392%);fill-opacity:1;" d="M 26.265625 12.65625 C 26.265625 12.546875 26.210938 12.492188 26.101562 12.492188 L 25.203125 12.492188 C 25.128906 12.492188 25.0625 12.519531 25.011719 12.574219 C 24.957031 12.628906 24.929688 12.691406 24.929688 12.769531 C 24.929688 12.84375 24.957031 12.910156 25.011719 12.964844 C 25.0625 13.015625 25.128906 13.042969 25.203125 13.042969 L 25.652344 13.042969 C 25.761719 13.042969 25.816406 13.097656 25.816406 13.207031 C 25.816406 13.316406 25.871094 13.371094 25.980469 13.371094 L 26.871094 13.371094 C 26.945312 13.371094 27.011719 13.347656 27.066406 13.292969 C 27.117188 13.238281 27.144531 13.171875 27.144531 13.097656 C 27.144531 13.019531 27.117188 12.957031 27.066406 12.902344 C 27.011719 12.847656 26.945312 12.820312 26.871094 12.820312 L 26.441406 12.820312 C 26.324219 12.828125 26.265625 12.773438 26.265625 12.65625 Z M 26.265625 12.65625 "/>
<path style=" stroke:none;fill-rule:nonzero;fill:rgb(85.099792%,92.158508%,95.689392%);fill-opacity:1;" d="M 30.371094 13.570312 C 30.371094 13.683594 30.332031 13.777344 30.253906 13.855469 C 30.175781 13.933594 30.082031 13.972656 29.972656 13.972656 C 29.863281 13.972656 29.769531 13.933594 29.691406 13.855469 C 29.613281 13.777344 29.574219 13.683594 29.574219 13.570312 C 29.574219 13.460938 29.613281 13.367188 29.691406 13.289062 C 29.769531 13.210938 29.863281 13.171875 29.972656 13.171875 C 30.082031 13.171875 30.175781 13.210938 30.253906 13.289062 C 30.332031 13.367188 30.371094 13.460938 30.371094 13.570312 Z M 30.371094 13.570312 "/>
<path style=" stroke:none;fill-rule:nonzero;fill:rgb(85.099792%,92.158508%,95.689392%);fill-opacity:1;" d="M 24.253906 13.664062 C 24.253906 13.773438 24.21875 13.863281 24.140625 13.941406 C 24.066406 14.015625 23.976562 14.054688 23.867188 14.054688 C 23.761719 14.054688 23.671875 14.015625 23.59375 13.941406 C 23.519531 13.863281 23.480469 13.773438 23.480469 13.664062 C 23.480469 13.558594 23.519531 13.46875 23.59375 13.390625 C 23.671875 13.316406 23.761719 13.277344 23.867188 13.277344 C 23.976562 13.277344 24.066406 13.316406 24.140625 13.390625 C 24.21875 13.46875 24.253906 13.558594 24.253906 13.664062 Z M 24.253906 13.664062 "/>
<path style=" stroke:none;fill-rule:nonzero;fill:rgb(85.099792%,92.158508%,95.689392%);fill-opacity:1;" d="M 22.570312 14.453125 C 22.570312 14.625 22.511719 14.769531 22.390625 14.890625 C 22.269531 15.011719 22.121094 15.074219 21.949219 15.074219 C 21.777344 15.074219 21.632812 15.011719 21.511719 14.890625 C 21.390625 14.769531 21.328125 14.625 21.328125 14.453125 C 21.328125 14.28125 21.390625 14.132812 21.511719 14.011719 C 21.632812 13.890625 21.777344 13.832031 21.949219 13.832031 C 22.121094 13.832031 22.269531 13.890625 22.390625 14.011719 C 22.511719 14.132812 22.570312 14.28125 22.570312 14.453125 Z M 22.570312 14.453125 "/>
<path style=" stroke:none;fill-rule:nonzero;fill:rgb(85.099792%,92.158508%,95.689392%);fill-opacity:1;" d="M 21.78125 9.644531 C 21.78125 9.777344 21.714844 9.84375 21.582031 9.84375 C 21.449219 9.84375 21.382812 9.777344 21.382812 9.644531 C 21.382812 9.511719 21.449219 9.445312 21.582031 9.445312 C 21.714844 9.445312 21.78125 9.511719 21.78125 9.644531 Z M 21.78125 9.644531 "/>
<path style=" stroke:none;fill-rule:nonzero;fill:rgb(85.099792%,92.158508%,95.689392%);fill-opacity:1;" d="M 28.136719 14.453125 C 28.136719 14.519531 28.113281 14.578125 28.0625 14.625 C 28.015625 14.675781 27.957031 14.699219 27.890625 14.699219 C 27.820312 14.699219 27.765625 14.675781 27.714844 14.625 C 27.667969 14.578125 27.644531 14.519531 27.644531 14.453125 C 27.644531 14.382812 27.667969 14.324219 27.714844 14.277344 C 27.765625 14.230469 27.820312 14.207031 27.890625 14.207031 C 27.957031 14.207031 28.015625 14.230469 28.0625 14.277344 C 28.113281 14.324219 28.136719 14.382812 28.136719 14.453125 Z M 28.136719 14.453125 "/>
<path style=" stroke:none;fill-rule:nonzero;fill:rgb(85.099792%,92.158508%,95.689392%);fill-opacity:1;" d="M 26.6875 15.21875 C 26.6875 15.398438 26.625 15.550781 26.5 15.675781 C 26.375 15.800781 26.222656 15.863281 26.042969 15.863281 C 25.863281 15.863281 25.714844 15.800781 25.585938 15.675781 C 25.460938 15.550781 25.398438 15.398438 25.398438 15.21875 C 25.398438 15.042969 25.460938 14.890625 25.585938 14.761719 C 25.714844 14.636719 25.863281 14.574219 26.042969 14.574219 C 26.222656 14.574219 26.375 14.636719 26.5 14.761719 C 26.625 14.890625 26.6875 15.042969 26.6875 15.21875 Z M 26.6875 15.21875 "/>
<path style=" stroke:none;fill-rule:nonzero;fill:rgb(85.099792%,92.158508%,95.689392%);fill-opacity:1;" d="M 28.769531 12.710938 C 28.769531 12.859375 28.695312 12.933594 28.546875 12.933594 C 28.398438 12.933594 28.324219 12.859375 28.324219 12.710938 C 28.324219 12.5625 28.398438 12.488281 28.546875 12.488281 C 28.695312 12.488281 28.769531 12.5625 28.769531 12.710938 Z M 28.769531 12.710938 "/>
<path style=" stroke:none;fill-rule:nonzero;fill:rgb(85.099792%,92.158508%,95.689392%);fill-opacity:1;" d="M 33.003906 3.359375 C 33.003906 3.257812 32.96875 3.167969 32.894531 3.097656 C 32.824219 3.023438 32.734375 2.988281 32.632812 2.988281 L 30.664062 2.988281 C 30.5 2.988281 30.363281 3.046875 30.25 3.160156 C 30.132812 3.273438 30.078125 3.414062 30.078125 3.574219 C 30.078125 3.738281 30.132812 3.875 30.25 3.988281 C 30.363281 4.105469 30.5 4.160156 30.664062 4.160156 L 31.648438 4.160156 C 31.75 4.160156 31.835938 4.199219 31.910156 4.269531 C 31.980469 4.34375 32.019531 4.429688 32.019531 4.53125 C 32.019531 4.632812 32.054688 4.71875 32.125 4.792969 C 32.199219 4.863281 32.285156 4.898438 32.386719 4.898438 L 34.359375 4.898438 C 34.519531 4.898438 34.65625 4.84375 34.773438 4.730469 C 34.886719 4.613281 34.945312 4.476562 34.945312 4.3125 C 34.945312 4.152344 34.886719 4.015625 34.773438 3.898438 C 34.65625 3.785156 34.519531 3.726562 34.359375 3.726562 L 33.371094 3.726562 C 33.269531 3.726562 33.183594 3.691406 33.109375 3.621094 C 33.039062 3.546875 33.003906 3.460938 33.003906 3.359375 Z M 33.003906 3.359375 "/>
<path style=" stroke:none;fill-rule:nonzero;fill:rgb(85.099792%,92.158508%,95.689392%);fill-opacity:1;" d="M 29.4375 6.136719 C 29.433594 5.992188 29.503906 5.921875 29.648438 5.921875 L 30.792969 5.921875 C 30.890625 5.921875 30.976562 5.957031 31.046875 6.023438 C 31.117188 6.09375 31.148438 6.179688 31.148438 6.277344 C 31.148438 6.378906 31.117188 6.460938 31.046875 6.53125 C 30.976562 6.601562 30.890625 6.636719 30.792969 6.636719 L 30.207031 6.636719 C 30.144531 6.632812 30.09375 6.65625 30.050781 6.699219 C 30.007812 6.742188 29.988281 6.792969 29.988281 6.851562 C 29.988281 6.996094 29.917969 7.070312 29.773438 7.070312 L 28.660156 7.070312 C 28.558594 7.070312 28.476562 7.035156 28.40625 6.964844 C 28.335938 6.894531 28.300781 6.8125 28.300781 6.710938 C 28.300781 6.613281 28.335938 6.527344 28.40625 6.460938 C 28.476562 6.390625 28.558594 6.355469 28.660156 6.355469 L 29.246094 6.355469 C 29.378906 6.34375 29.441406 6.269531 29.4375 6.136719 Z M 29.4375 6.136719 "/>
<path style=" stroke:none;fill-rule:nonzero;fill:rgb(85.099792%,92.158508%,95.689392%);fill-opacity:1;" d="M 25.203125 7.308594 C 25.203125 7.453125 25.15625 7.574219 25.054688 7.675781 C 24.953125 7.777344 24.832031 7.824219 24.6875 7.824219 C 24.546875 7.824219 24.425781 7.777344 24.324219 7.675781 C 24.222656 7.574219 24.171875 7.453125 24.171875 7.308594 C 24.171875 7.167969 24.222656 7.046875 24.324219 6.945312 C 24.425781 6.84375 24.546875 6.792969 24.6875 6.792969 C 24.832031 6.792969 24.953125 6.84375 25.054688 6.945312 C 25.15625 7.046875 25.203125 7.167969 25.203125 7.308594 Z M 25.203125 7.308594 "/>
<path style=" stroke:none;fill-rule:nonzero;fill:rgb(85.099792%,92.158508%,95.689392%);fill-opacity:1;" d="M 33.015625 7.425781 C 33.015625 7.566406 32.964844 7.683594 32.867188 7.78125 C 32.769531 7.878906 32.652344 7.925781 32.515625 7.925781 C 32.378906 7.925781 32.261719 7.878906 32.164062 7.78125 C 32.066406 7.683594 32.019531 7.566406 32.019531 7.425781 C 32.019531 7.289062 32.066406 7.171875 32.164062 7.074219 C 32.261719 6.976562 32.378906 6.929688 32.515625 6.929688 C 32.652344 6.929688 32.769531 6.976562 32.867188 7.074219 C 32.964844 7.171875 33.015625 7.289062 33.015625 7.425781 Z M 33.015625 7.425781 "/>
<path style=" stroke:none;fill-rule:nonzero;fill:rgb(85.099792%,92.158508%,95.689392%);fill-opacity:1;" d="M 35.765625 8.4375 C 35.765625 8.65625 35.6875 8.84375 35.53125 9 C 35.375 9.15625 35.1875 9.234375 34.96875 9.234375 C 34.746094 9.234375 34.558594 9.15625 34.402344 9 C 34.246094 8.84375 34.167969 8.65625 34.167969 8.4375 C 34.167969 8.214844 34.246094 8.027344 34.402344 7.871094 C 34.558594 7.714844 34.746094 7.636719 34.96875 7.636719 C 35.1875 7.636719 35.375 7.714844 35.53125 7.871094 C 35.6875 8.027344 35.765625 8.214844 35.765625 8.4375 Z M 35.765625 8.4375 "/>
<path style=" stroke:none;fill-rule:nonzero;fill:rgb(85.099792%,92.158508%,95.689392%);fill-opacity:1;" d="M 35.707031 2.273438 C 35.707031 2.34375 35.679688 2.40625 35.628906 2.457031 C 35.578125 2.507812 35.519531 2.53125 35.449219 2.53125 C 35.375 2.53125 35.316406 2.507812 35.265625 2.457031 C 35.214844 2.40625 35.191406 2.34375 35.191406 2.273438 C 35.191406 2.203125 35.214844 2.140625 35.265625 2.089844 C 35.316406 2.039062 35.375 2.015625 35.449219 2.015625 C 35.519531 2.015625 35.578125 2.039062 35.628906 2.089844 C 35.679688 2.140625 35.707031 2.203125 35.707031 2.273438 Z M 35.707031 2.273438 "/>
<path style=" stroke:none;fill-rule:nonzero;fill:rgb(85.099792%,92.158508%,95.689392%);fill-opacity:1;" d="M 27.671875 8.4375 C 27.671875 8.523438 27.640625 8.597656 27.582031 8.660156 C 27.519531 8.722656 27.445312 8.753906 27.355469 8.753906 C 27.269531 8.753906 27.195312 8.722656 27.132812 8.660156 C 27.070312 8.597656 27.039062 8.523438 27.039062 8.4375 C 27.039062 8.347656 27.070312 8.273438 27.132812 8.210938 C 27.195312 8.148438 27.269531 8.121094 27.355469 8.121094 C 27.445312 8.121094 27.519531 8.148438 27.582031 8.210938 C 27.640625 8.273438 27.671875 8.347656 27.671875 8.4375 Z M 27.671875 8.4375 "/>
<path style=" stroke:none;fill-rule:nonzero;fill:rgb(85.099792%,92.158508%,95.689392%);fill-opacity:1;" d="M 30.550781 9.421875 C 30.550781 9.648438 30.472656 9.84375 30.308594 10.003906 C 30.148438 10.167969 29.953125 10.246094 29.726562 10.246094 C 29.496094 10.246094 29.300781 10.167969 29.140625 10.003906 C 28.980469 9.84375 28.898438 9.648438 28.898438 9.421875 C 28.898438 9.191406 28.980469 8.996094 29.140625 8.835938 C 29.300781 8.675781 29.496094 8.59375 29.726562 8.59375 C 29.953125 8.59375 30.148438 8.675781 30.308594 8.835938 C 30.472656 8.996094 30.550781 9.191406 30.550781 9.421875 Z M 30.550781 9.421875 "/>
<path style=" stroke:none;fill-rule:nonzero;fill:rgb(85.099792%,92.158508%,95.689392%);fill-opacity:1;" d="M 26.804688 6.207031 C 26.804688 6.289062 26.777344 6.355469 26.722656 6.410156 C 26.664062 6.46875 26.597656 6.496094 26.519531 6.496094 C 26.4375 6.496094 26.371094 6.46875 26.316406 6.410156 C 26.257812 6.355469 26.230469 6.289062 26.230469 6.207031 C 26.230469 6.128906 26.257812 6.0625 26.316406 6.003906 C 26.371094 5.949219 26.4375 5.921875 26.519531 5.921875 C 26.597656 5.921875 26.664062 5.949219 26.722656 6.003906 C 26.777344 6.0625 26.804688 6.128906 26.804688 6.207031 Z M 26.804688 6.207031 "/>
<g clip-path="url(#clip1)" clip-rule="nonzero">
<path style=" stroke:none;fill-rule:nonzero;fill:rgb(77.648926%,88.62915%,95.689392%);fill-opacity:1;" d="M 35.765625 35.882812 L 35.765625 19.886719 C 35.765625 19.742188 35.714844 19.621094 35.613281 19.519531 C 35.511719 19.414062 35.386719 19.363281 35.242188 19.363281 L 34.699219 19.363281 C 34.554688 19.363281 34.429688 19.414062 34.328125 19.519531 C 34.226562 19.621094 34.175781 19.742188 34.175781 19.886719 L 34.175781 21.21875 C 34.175781 21.363281 34.125 21.484375 34.023438 21.585938 C 33.921875 21.6875 33.796875 21.738281 33.652344 21.738281 L 31.894531 21.738281 C 31.75 21.738281 31.628906 21.789062 31.527344 21.890625 C 31.425781 21.996094 31.371094 22.117188 31.371094 22.261719 L 31.371094 28.347656 C 31.371094 28.492188 31.320312 28.613281 31.21875 28.714844 C 31.117188 28.820312 30.996094 28.871094 30.851562 28.871094 L 29.777344 28.871094 C 29.632812 28.871094 29.511719 28.921875 29.410156 29.023438 C 29.308594 29.125 29.257812 29.246094 29.257812 29.390625 L 29.257812 33.226562 C 29.257812 33.371094 29.207031 33.492188 29.105469 33.59375 C 29 33.695312 28.878906 33.746094 28.734375 33.746094 L 28.199219 33.746094 C 28.058594 33.746094 27.933594 33.695312 27.832031 33.59375 C 27.730469 33.492188 27.679688 33.371094 27.679688 33.226562 L 27.679688 32.558594 C 27.679688 32.414062 27.628906 32.289062 27.527344 32.1875 C 27.425781 32.085938 27.300781 32.035156 27.15625 32.035156 L 26.683594 32.035156 C 26.539062 32.035156 26.414062 31.984375 26.3125 31.882812 C 26.210938 31.78125 26.160156 31.65625 26.160156 31.515625 L 26.160156 30.632812 C 26.160156 30.488281 26.109375 30.367188 26.007812 30.265625 C 25.90625 30.164062 25.78125 30.113281 25.640625 30.113281 L 22.835938 30.113281 C 22.691406 30.113281 22.570312 30.0625 22.46875 29.960938 C 22.363281 29.859375 22.3125 29.734375 22.3125 29.589844 L 22.3125 29.058594 C 22.3125 28.914062 22.261719 28.789062 22.160156 28.6875 C 22.058594 28.585938 21.9375 28.535156 21.792969 28.535156 L 12.761719 28.535156 C 12.617188 28.535156 12.496094 28.585938 12.394531 28.6875 L 9.964844 31.089844 C 9.863281 31.195312 9.742188 31.246094 9.597656 31.242188 L 8.851562 31.242188 C 8.707031 31.242188 8.585938 31.296875 8.484375 31.398438 C 8.382812 31.5 8.332031 31.621094 8.332031 31.765625 L 8.332031 33.523438 C 8.332031 33.667969 8.28125 33.792969 8.175781 33.894531 C 8.074219 33.996094 7.953125 34.046875 7.808594 34.046875 L 7.507812 34.046875 C 7.367188 34.046875 7.242188 33.996094 7.140625 33.894531 C 7.039062 33.792969 6.988281 33.667969 6.988281 33.523438 L 6.988281 33.21875 C 6.988281 33.074219 6.9375 32.953125 6.835938 32.851562 C 6.734375 32.75 6.609375 32.699219 6.464844 32.699219 L 6.097656 32.699219 C 5.953125 32.699219 5.828125 32.648438 5.726562 32.546875 C 5.625 32.445312 5.574219 32.320312 5.574219 32.175781 C 5.574219 32.03125 5.523438 31.910156 5.421875 31.808594 C 5.320312 31.707031 5.195312 31.65625 5.054688 31.65625 L 2.339844 31.65625 C 2.195312 31.65625 2.070312 31.707031 1.96875 31.808594 C 1.867188 31.910156 1.816406 32.03125 1.816406 32.175781 L 1.816406 35.875 Z M 35.765625 35.882812 "/>
</g>
<g clip-path="url(#clip2)" clip-rule="nonzero">
<path style="fill:none;stroke-width:2;stroke-linecap:round;stroke-linejoin:round;stroke:rgb(1.568604%,7.058716%,33.729553%);stroke-opacity:1;stroke-miterlimit:4;" d="M 2.986926 60.951551 L 61.008278 60.951551 " transform="matrix(0.586328,0,0,0.586328,0.057276,0.145224)"/>
</g>
<g clip-path="url(#clip3)" clip-rule="nonzero">
<path style=" stroke:none;fill-rule:nonzero;fill:rgb(85.099792%,92.158508%,95.689392%);fill-opacity:1;" d="M 21.164062 1.933594 L 10.609375 1.933594 C 9.773438 1.945312 9.0625 2.25 8.472656 2.84375 L 2.714844 8.59375 C 2.113281 9.199219 1.8125 9.929688 1.816406 10.78125 L 1.816406 29.65625 C 1.820312 30.097656 1.90625 30.519531 2.074219 30.925781 C 2.246094 31.335938 2.488281 31.695312 2.800781 32.003906 C 3.113281 32.316406 3.472656 32.554688 3.878906 32.726562 C 4.285156 32.894531 4.710938 32.980469 5.152344 32.980469 L 21.164062 32.980469 C 21.609375 32.980469 22.035156 32.894531 22.445312 32.726562 C 22.851562 32.554688 23.214844 32.3125 23.527344 32 C 23.839844 31.6875 24.082031 31.324219 24.253906 30.917969 C 24.421875 30.507812 24.507812 30.082031 24.507812 29.636719 L 24.507812 5.28125 C 24.507812 4.835938 24.421875 4.410156 24.253906 4 C 24.085938 3.589844 23.84375 3.226562 23.53125 2.914062 C 23.21875 2.601562 22.855469 2.359375 22.445312 2.1875 C 22.035156 2.019531 21.609375 1.933594 21.164062 1.933594 Z M 21.164062 1.933594 "/>
</g>
<g clip-path="url(#clip4)" clip-rule="nonzero">
<path style=" stroke:none;fill-rule:nonzero;fill:rgb(100%,100%,100%);fill-opacity:1;" d="M 21.246094 1.9375 C 21.570312 2.054688 21.867188 2.21875 22.140625 2.425781 C 22.410156 2.636719 22.648438 2.878906 22.84375 3.160156 C 23.042969 3.441406 23.191406 3.746094 23.296875 4.070312 C 23.398438 4.398438 23.453125 4.734375 23.453125 5.078125 L 23.453125 29.460938 C 23.453125 29.90625 23.367188 30.332031 23.199219 30.742188 C 23.027344 31.148438 22.785156 31.511719 22.472656 31.824219 C 22.160156 32.136719 21.796875 32.378906 21.386719 32.550781 C 20.980469 32.71875 20.554688 32.804688 20.109375 32.804688 L 4.007812 32.804688 C 4.378906 32.929688 4.761719 32.988281 5.152344 32.980469 L 21.164062 32.980469 C 21.609375 32.980469 22.035156 32.894531 22.445312 32.726562 C 22.851562 32.554688 23.214844 32.3125 23.527344 32 C 23.839844 31.6875 24.082031 31.324219 24.253906 30.917969 C 24.421875 30.507812 24.507812 30.082031 24.507812 29.636719 L 24.507812 5.28125 C 24.507812 4.84375 24.425781 4.425781 24.261719 4.019531 C 24.097656 3.617188 23.863281 3.257812 23.558594 2.945312 C 23.253906 2.632812 22.902344 2.390625 22.5 2.21875 C 22.101562 2.042969 21.683594 1.949219 21.246094 1.9375 Z M 21.246094 1.9375 "/>
</g>
<g clip-path="url(#clip5)" clip-rule="nonzero">
<path style=" stroke:none;fill-rule:nonzero;fill:rgb(72.549438%,86.268616%,91.758728%);fill-opacity:1;" d="M 6.277344 10.546875 C 6.550781 10.546875 6.820312 10.519531 7.085938 10.46875 C 7.355469 10.414062 7.613281 10.335938 7.863281 10.230469 C 8.117188 10.128906 8.355469 10 8.582031 9.847656 C 8.808594 9.695312 9.015625 9.523438 9.210938 9.332031 C 9.402344 9.140625 9.574219 8.929688 9.726562 8.703125 C 9.875 8.476562 10.003906 8.238281 10.109375 7.988281 C 10.210938 7.734375 10.289062 7.476562 10.34375 7.210938 C 10.398438 6.941406 10.421875 6.671875 10.421875 6.402344 L 10.421875 1.957031 C 10.082031 1.984375 9.753906 2.066406 9.4375 2.203125 C 9.402344 2.234375 9.363281 2.261719 9.328125 2.292969 L 2.167969 9.425781 C 2.132812 9.460938 2.109375 9.503906 2.082031 9.539062 C 1.933594 9.859375 1.847656 10.195312 1.816406 10.546875 Z M 6.277344 10.546875 "/>
</g>
<g clip-path="url(#clip6)" clip-rule="nonzero">
<path style=" stroke:none;fill-rule:nonzero;fill:rgb(72.549438%,86.268616%,91.758728%);fill-opacity:1;" d="M 18.050781 27.238281 C 16.769531 25.960938 15.625 24.566406 14.621094 23.058594 C 13.613281 21.554688 12.761719 19.964844 12.070312 18.289062 C 11.375 16.617188 10.851562 14.890625 10.5 13.113281 C 10.148438 11.339844 9.972656 9.542969 9.972656 7.730469 L 9.972656 4.03125 L 6.507812 4.800781 L 2.714844 8.59375 C 2.113281 9.199219 1.8125 9.929688 1.816406 10.78125 L 1.816406 29.65625 C 1.820312 30.097656 1.90625 30.519531 2.074219 30.925781 C 2.246094 31.335938 2.488281 31.695312 2.800781 32.003906 C 3.113281 32.316406 3.472656 32.554688 3.878906 32.726562 C 4.285156 32.894531 4.710938 32.980469 5.152344 32.980469 L 21.164062 32.980469 C 21.585938 32.980469 21.992188 32.902344 22.382812 32.75 C 22.773438 32.597656 23.125 32.378906 23.433594 32.089844 C 23.742188 31.804688 23.988281 31.476562 24.171875 31.097656 C 24.355469 30.71875 24.460938 30.320312 24.496094 29.902344 C 23.289062 29.898438 22.125 29.667969 21.011719 29.207031 C 19.894531 28.746094 18.90625 28.089844 18.050781 27.238281 Z M 18.050781 27.238281 "/>
</g>
<path style=" stroke:none;fill-rule:nonzero;fill:rgb(85.099792%,92.158508%,95.689392%);fill-opacity:1;" d="M 21.84375 32.933594 C 22.035156 32.894531 22.222656 32.839844 22.402344 32.769531 L 22.453125 32.769531 C 22.628906 32.695312 22.792969 32.609375 22.953125 32.511719 L 23 32.480469 C 23.15625 32.378906 23.304688 32.265625 23.441406 32.140625 L 23.480469 32.105469 C 23.617188 31.976562 23.742188 31.835938 23.855469 31.683594 L 23.855469 31.648438 C 23.972656 31.492188 24.074219 31.328125 24.160156 31.15625 C 24.25 30.96875 24.320312 30.773438 24.371094 30.570312 C 24.429688 30.367188 24.464844 30.164062 24.484375 29.953125 C 24.117188 29.949219 23.75 29.925781 23.386719 29.878906 C 23.335938 30.28125 23.21875 30.664062 23.027344 31.027344 C 22.835938 31.386719 22.589844 31.703125 22.28125 31.972656 C 21.976562 32.242188 21.632812 32.449219 21.253906 32.59375 C 20.871094 32.738281 20.476562 32.808594 20.070312 32.808594 L 4.007812 32.808594 C 4.1875 32.875 4.367188 32.921875 4.554688 32.957031 L 4.582031 32.957031 C 4.777344 32.992188 4.972656 33.007812 5.171875 33.007812 L 21.164062 33.007812 C 21.371094 33.007812 21.578125 32.988281 21.78125 32.949219 Z M 21.84375 32.933594 "/>
<g clip-path="url(#clip7)" clip-rule="nonzero">
<path style=" stroke:none;fill-rule:nonzero;fill:rgb(55.288696%,72.549438%,82.749939%);fill-opacity:1;" d="M 9.984375 8.253906 L 9.984375 4.03125 L 6.871094 4.71875 L 2.179688 9.410156 C 2.144531 9.445312 2.121094 9.484375 2.09375 9.519531 C 2.027344 9.667969 1.976562 9.820312 1.9375 9.976562 L 1.9375 10.019531 C 1.902344 10.1875 1.875 10.355469 1.863281 10.527344 L 6.308594 10.527344 C 7.085938 10.527344 7.804688 10.320312 8.464844 9.910156 C 9.128906 9.5 9.632812 8.949219 9.984375 8.253906 Z M 9.984375 8.253906 "/>
</g>
<g clip-path="url(#clip8)" clip-rule="nonzero">
<path style=" stroke:none;fill-rule:nonzero;fill:rgb(39.608765%,80.778503%,70.979309%);fill-opacity:1;" d="M 22.296875 31.949219 L 5.605469 31.949219 C 5.246094 31.949219 4.902344 31.878906 4.574219 31.742188 C 4.246094 31.605469 3.953125 31.410156 3.699219 31.160156 C 3.449219 30.90625 3.253906 30.617188 3.117188 30.285156 C 2.980469 29.957031 2.914062 29.613281 2.914062 29.257812 L 2.914062 9.730469 C 2.914062 8.878906 3.214844 8.152344 3.816406 7.550781 L 6.578125 4.789062 L 6.507812 4.789062 L 2.714844 8.59375 C 2.113281 9.199219 1.8125 9.929688 1.816406 10.78125 L 1.816406 29.65625 C 1.820312 30.097656 1.90625 30.519531 2.074219 30.925781 C 2.246094 31.335938 2.488281 31.695312 2.800781 32.003906 C 3.113281 32.316406 3.472656 32.554688 3.878906 32.726562 C 4.285156 32.894531 4.710938 32.980469 5.152344 32.980469 L 21.164062 32.980469 C 21.726562 32.976562 22.253906 32.84375 22.746094 32.574219 C 23.238281 32.308594 23.636719 31.9375 23.945312 31.46875 C 23.4375 31.773438 22.890625 31.933594 22.296875 31.949219 Z M 22.296875 31.949219 "/>
</g>
<g clip-path="url(#clip9)" clip-rule="nonzero">
<path style=" stroke:none;fill-rule:nonzero;fill:rgb(85.099792%,92.158508%,95.689392%);fill-opacity:1;" d="M 6.03125 9.527344 C 6.476562 9.527344 6.902344 9.441406 7.3125 9.273438 C 7.71875 9.101562 8.082031 8.859375 8.394531 8.546875 C 8.707031 8.234375 8.949219 7.871094 9.121094 7.464844 C 9.289062 7.054688 9.375 6.628906 9.375 6.183594 L 9.375 1.933594 L 1.816406 9.527344 Z M 6.03125 9.527344 "/>
</g>
<path style=" stroke:none;fill-rule:nonzero;fill:rgb(78.819275%,33.329773%,51.759338%);fill-opacity:1;" d="M 9.375 2.222656 C 9.035156 2.375 8.734375 2.582031 8.472656 2.84375 L 2.714844 8.59375 C 2.449219 8.867188 2.246094 9.179688 2.097656 9.527344 L 6.03125 9.527344 C 6.476562 9.527344 6.902344 9.441406 7.3125 9.273438 C 7.71875 9.101562 8.082031 8.859375 8.394531 8.546875 C 8.707031 8.234375 8.949219 7.871094 9.121094 7.464844 C 9.289062 7.054688 9.375 6.628906 9.375 6.183594 Z M 9.375 2.222656 "/>
<path style=" stroke:none;fill-rule:nonzero;fill:rgb(88.62915%,47.44873%,65.879822%);fill-opacity:1;" d="M 4.554688 6.753906 L 2.714844 8.59375 C 2.449219 8.867188 2.246094 9.179688 2.097656 9.527344 L 3.769531 9.527344 L 5.105469 8.191406 C 5.230469 8.074219 5.292969 7.929688 5.292969 7.757812 C 5.292969 7.585938 5.230469 7.445312 5.105469 7.328125 Z M 4.554688 6.753906 "/>
<path style=" stroke:none;fill-rule:nonzero;fill:rgb(88.62915%,47.44873%,65.879822%);fill-opacity:1;" d="M 8.472656 2.84375 L 5.054688 6.253906 L 5.605469 6.804688 C 5.71875 6.933594 5.863281 6.996094 6.035156 6.996094 C 6.207031 6.996094 6.351562 6.933594 6.464844 6.804688 L 9.398438 3.875 L 9.398438 2.222656 C 9.050781 2.371094 8.742188 2.578125 8.472656 2.84375 Z M 8.472656 2.84375 "/>
<g clip-path="url(#clip10)" clip-rule="nonzero">
<path style="fill:none;stroke-width:2;stroke-linecap:round;stroke-linejoin:round;stroke:rgb(1.568604%,7.058716%,33.729553%);stroke-opacity:1;stroke-miterlimit:4;" d="M 35.998271 3.050119 L 17.996928 3.050119 C 16.571211 3.070105 15.358685 3.589759 14.352689 4.602418 L 4.532563 14.409219 C 3.50658 15.441865 2.993588 16.687701 3.000251 18.140067 L 3.000251 50.331958 C 3.006913 51.08479 3.153482 51.80431 3.439958 52.497182 C 3.733096 53.196716 4.146154 53.809641 4.679132 54.335957 C 5.212111 54.868936 5.825036 55.275332 6.517907 55.56847 C 7.210779 55.854946 7.936962 56.001515 8.689794 56.001515 L 35.998271 56.001515 C 36.757765 56.001515 37.483948 55.854946 38.183482 55.56847 C 38.876354 55.275332 39.495941 54.862273 40.028919 54.329295 C 40.561897 53.796317 40.974956 53.176729 41.268094 52.483858 C 41.55457 51.784324 41.701139 51.058141 41.701139 50.298647 L 41.701139 8.759649 C 41.701139 8.000155 41.55457 7.273972 41.268094 6.574438 C 40.981618 5.874904 40.56856 5.255316 40.035581 4.722338 C 39.502603 4.18936 38.883016 3.776302 38.183482 3.483164 C 37.483948 3.196688 36.757765 3.050119 35.998271 3.050119 Z M 35.998271 3.050119 " transform="matrix(0.586328,0,0,0.586328,0.057276,0.145224)"/>
</g>
<g clip-path="url(#clip11)" clip-rule="nonzero">
<path style="fill:none;stroke-width:2;stroke-linecap:round;stroke-linejoin:round;stroke:rgb(1.568604%,7.058716%,33.729553%);stroke-opacity:1;stroke-miterlimit:4;" d="M 15.891664 3.543124 C 15.31205 3.802951 14.799058 4.156049 14.352689 4.602418 L 4.532563 14.409219 C 4.079532 14.875575 3.733096 15.408553 3.479931 16.001492 L 10.188796 16.001492 C 10.94829 16.001492 11.674473 15.854923 12.374007 15.568447 C 13.066878 15.275309 13.686466 14.862251 14.219444 14.329272 C 14.752422 13.796294 15.165481 13.176707 15.458619 12.483835 C 15.745095 11.784301 15.891664 11.058118 15.891664 10.298624 Z M 15.891664 3.543124 " transform="matrix(0.586328,0,0,0.586328,0.057276,0.145224)"/>
</g>
<path style="fill:none;stroke-width:1;stroke-linecap:round;stroke-linejoin:miter;stroke:rgb(50.19989%,62.748718%,75.689697%);stroke-opacity:1;stroke-miterlimit:10;" d="M 12.007584 28.573118 L 33.999602 28.573118 " transform="matrix(0.586328,0,0,0.586328,0.057276,0.145224)"/>
<path style="fill:none;stroke-width:1;stroke-linecap:round;stroke-linejoin:miter;stroke:rgb(50.19989%,62.748718%,75.689697%);stroke-opacity:1;stroke-miterlimit:10;" d="M 12.007584 24.569118 L 33.999602 24.569118 " transform="matrix(0.586328,0,0,0.586328,0.057276,0.145224)"/>
<path style="fill:none;stroke-width:1;stroke-linecap:round;stroke-linejoin:miter;stroke:rgb(50.19989%,62.748718%,75.689697%);stroke-opacity:1;stroke-miterlimit:10;" d="M 12.007584 32.517157 L 33.999602 32.517157 " transform="matrix(0.586328,0,0,0.586328,0.057276,0.145224)"/>
<path style="fill:none;stroke-width:1;stroke-linecap:round;stroke-linejoin:miter;stroke:rgb(50.19989%,62.748718%,75.689697%);stroke-opacity:1;stroke-miterlimit:10;" d="M 12.007584 36.228019 L 24.712455 36.228019 " transform="matrix(0.586328,0,0,0.586328,0.057276,0.145224)"/>
<path style=" stroke:none;fill-rule:nonzero;fill:rgb(28.239441%,38.42926%,79.998779%);fill-opacity:1;" d="M 23.652344 27.835938 L 16.710938 27.835938 C 16.464844 27.835938 16.253906 27.925781 16.082031 28.097656 C 15.910156 28.269531 15.824219 28.476562 15.824219 28.722656 L 15.824219 34.992188 C 15.824219 35.234375 15.910156 35.445312 16.082031 35.617188 C 16.253906 35.789062 16.464844 35.875 16.710938 35.875 L 23.652344 35.875 C 23.894531 35.875 24.105469 35.789062 24.277344 35.617188 C 24.449219 35.445312 24.535156 35.234375 24.535156 34.992188 L 24.535156 28.730469 C 24.539062 28.484375 24.453125 28.273438 24.277344 28.097656 C 24.105469 27.925781 23.898438 27.835938 23.652344 27.835938 Z M 23.652344 27.835938 "/>
<path style=" stroke:none;fill-rule:nonzero;fill:rgb(47.44873%,55.688477%,90.979004%);fill-opacity:1;" d="M 17.183594 33.945312 L 17.183594 30.046875 C 17.183594 29.804688 17.269531 29.59375 17.441406 29.421875 C 17.617188 29.25 17.824219 29.164062 18.070312 29.164062 L 24.519531 29.164062 L 24.519531 28.742188 C 24.519531 28.496094 24.433594 28.289062 24.257812 28.113281 C 24.085938 27.941406 23.878906 27.855469 23.632812 27.855469 L 16.710938 27.855469 C 16.464844 27.855469 16.253906 27.941406 16.082031 28.113281 C 15.910156 28.289062 15.824219 28.496094 15.824219 28.742188 L 15.824219 34.992188 C 15.824219 35.234375 15.910156 35.445312 16.082031 35.617188 C 16.253906 35.789062 16.464844 35.875 16.710938 35.875 L 17.183594 35.875 Z M 17.183594 33.945312 "/>
<path style=" stroke:none;fill-rule:nonzero;fill:rgb(69.018555%,74.899292%,92.939758%);fill-opacity:1;" d="M 19.28125 27.835938 L 21.078125 27.835938 L 21.078125 30.046875 C 21.078125 30.128906 21.046875 30.199219 20.988281 30.257812 C 20.929688 30.316406 20.859375 30.347656 20.777344 30.347656 L 19.605469 30.347656 C 19.523438 30.347656 19.453125 30.316406 19.394531 30.257812 C 19.335938 30.199219 19.304688 30.128906 19.304688 30.046875 L 19.304688 27.835938 Z M 19.28125 27.835938 "/>
<path style=" stroke:none;fill-rule:nonzero;fill:rgb(100%,100%,100%);fill-opacity:1;" d="M 19.28125 27.835938 L 21.078125 27.835938 L 21.078125 29.152344 L 19.28125 29.152344 Z M 19.28125 27.835938 "/>
<g clip-path="url(#clip12)" clip-rule="nonzero">
<path style="fill:none;stroke-width:2;stroke-linecap:round;stroke-linejoin:round;stroke:rgb(1.568604%,7.058716%,33.729553%);stroke-opacity:1;stroke-miterlimit:4;" d="M 40.24211 47.227359 L 28.40333 47.227359 C 27.983609 47.227359 27.623849 47.38059 27.330711 47.673728 C 27.037573 47.966866 26.891004 48.319965 26.891004 48.739685 L 26.891004 59.432562 C 26.891004 59.845621 27.037573 60.205381 27.330711 60.498519 C 27.623849 60.791657 27.983609 60.938226 28.40333 60.938226 L 40.24211 60.938226 C 40.655169 60.938226 41.014929 60.791657 41.308067 60.498519 C 41.601205 60.205381 41.747774 59.845621 41.747774 59.432562 L 41.747774 48.753009 C 41.754436 48.333289 41.607867 47.973529 41.308067 47.673728 C 41.014929 47.38059 40.661831 47.227359 40.24211 47.227359 Z M 40.24211 47.227359 " transform="matrix(0.586328,0,0,0.586328,0.057276,0.145224)"/>
</g>
<path style=" stroke:none;fill-rule:nonzero;fill:rgb(47.44873%,55.688477%,90.979004%);fill-opacity:1;" d="M 21.078125 32.582031 L 22.730469 32.582031 L 22.730469 32.78125 L 21.078125 32.78125 Z M 21.078125 32.582031 "/>
<path style=" stroke:none;fill-rule:nonzero;fill:rgb(47.44873%,55.688477%,90.979004%);fill-opacity:1;" d="M 21.078125 33.230469 L 22.730469 33.230469 L 22.730469 33.429688 L 21.078125 33.429688 Z M 21.078125 33.230469 "/>
<path style=" stroke:none;fill-rule:nonzero;fill:rgb(47.44873%,55.688477%,90.979004%);fill-opacity:1;" d="M 21.902344 33.886719 L 22.730469 33.886719 L 22.730469 34.085938 L 21.902344 34.085938 Z M 21.902344 33.886719 "/>
<path style=" stroke:none;fill-rule:nonzero;fill:rgb(59.21936%,64.309692%,80.778503%);fill-opacity:1;" d="M 33.125 7.179688 L 18.785156 21.511719 C 18.476562 21.816406 18.257812 22.179688 18.121094 22.589844 L 17.535156 24.308594 C 17.457031 24.523438 17.5 24.714844 17.664062 24.875 C 17.828125 25.035156 18.019531 25.074219 18.234375 24.988281 L 19.953125 24.402344 C 20.363281 24.265625 20.722656 24.046875 21.03125 23.738281 L 35.367188 9.421875 C 35.566406 9.222656 35.703125 8.984375 35.777344 8.710938 C 35.851562 8.4375 35.851562 8.164062 35.777344 7.890625 C 35.703125 7.617188 35.566406 7.378906 35.367188 7.175781 C 35.164062 6.976562 34.925781 6.835938 34.652344 6.765625 C 34.378906 6.695312 34.105469 6.695312 33.832031 6.769531 C 33.558594 6.84375 33.324219 6.980469 33.125 7.179688 Z M 33.125 7.179688 "/>
<path style=" stroke:none;fill-rule:nonzero;fill:rgb(48.239136%,56.469727%,77.648926%);fill-opacity:1;" d="M 21.03125 23.757812 L 35.335938 9.449219 C 35.640625 9.148438 35.804688 8.78125 35.824219 8.355469 C 35.839844 7.800781 35.625 7.355469 35.179688 7.027344 L 35.277344 7.554688 C 35.300781 7.65625 35.300781 7.757812 35.277344 7.859375 C 35.089844 8.523438 34.75 9.097656 34.261719 9.585938 L 20.777344 23.070312 C 20.582031 23.269531 20.34375 23.402344 20.074219 23.46875 C 19.804688 23.539062 19.570312 23.671875 19.371094 23.867188 L 18.410156 24.816406 L 18.484375 24.898438 L 19.953125 24.414062 C 20.363281 24.28125 20.722656 24.0625 21.03125 23.757812 Z M 21.03125 23.757812 "/>
<path style=" stroke:none;fill-rule:nonzero;fill:rgb(70.979309%,77.249146%,90.979004%);fill-opacity:1;" d="M 18.410156 24.816406 L 18.996094 23.101562 C 19.132812 22.6875 19.351562 22.328125 19.660156 22.019531 L 33.980469 7.683594 C 34.390625 7.277344 34.878906 7.136719 35.441406 7.261719 C 35.296875 7.089844 35.125 6.957031 34.925781 6.859375 C 34.722656 6.761719 34.511719 6.707031 34.289062 6.699219 C 34.0625 6.691406 33.847656 6.730469 33.640625 6.8125 C 33.433594 6.898438 33.253906 7.019531 33.097656 7.179688 L 18.785156 21.511719 C 18.476562 21.816406 18.257812 22.179688 18.121094 22.589844 L 17.535156 24.308594 C 17.457031 24.523438 17.5 24.714844 17.664062 24.875 C 17.828125 25.035156 18.019531 25.074219 18.234375 24.988281 L 18.390625 24.933594 C 18.394531 24.894531 18.398438 24.855469 18.410156 24.816406 Z M 18.410156 24.816406 "/>
<path style=" stroke:none;fill-rule:nonzero;fill:rgb(82.348633%,87.838745%,97.648621%);fill-opacity:1;" d="M 17.988281 24.613281 L 18.574219 22.894531 C 18.707031 22.492188 18.921875 22.140625 19.21875 21.839844 L 33.554688 7.472656 C 33.753906 7.273438 33.992188 7.136719 34.265625 7.0625 C 34.539062 6.992188 34.8125 6.992188 35.085938 7.0625 C 35.171875 7.085938 35.257812 7.117188 35.34375 7.15625 C 35.144531 6.964844 34.914062 6.835938 34.652344 6.765625 C 34.378906 6.691406 34.105469 6.691406 33.832031 6.765625 C 33.558594 6.839844 33.320312 6.976562 33.121094 7.175781 L 18.785156 21.511719 C 18.476562 21.816406 18.257812 22.179688 18.121094 22.589844 L 17.535156 24.308594 C 17.511719 24.386719 17.503906 24.464844 17.515625 24.542969 C 17.523438 24.625 17.550781 24.699219 17.597656 24.765625 C 17.640625 24.835938 17.699219 24.890625 17.765625 24.929688 C 17.835938 24.972656 17.914062 24.996094 17.992188 25.003906 C 17.9375 24.875 17.9375 24.746094 17.988281 24.613281 Z M 17.988281 24.613281 "/>
<g clip-path="url(#clip13)" clip-rule="nonzero">
<path style="fill:none;stroke-width:2;stroke-linecap:round;stroke-linejoin:round;stroke:rgb(1.568604%,7.058716%,33.729553%);stroke-opacity:1;stroke-miterlimit:4;" d="M 56.398016 11.997492 L 31.940973 36.44121 C 31.414657 36.960864 31.041572 37.580451 30.808394 38.279986 L 29.80906 41.211366 C 29.675815 41.577789 29.7491 41.904238 30.028913 42.177389 C 30.308727 42.450541 30.635176 42.517163 31.001599 42.370594 L 33.93298 41.37126 C 34.632514 41.138082 35.245439 40.764997 35.771755 40.238681 L 60.222135 15.821612 C 60.561909 15.481838 60.795087 15.075442 60.921669 14.609086 C 61.048252 14.14273 61.048252 13.676374 60.921669 13.210018 C 60.795087 12.743662 60.561909 12.337266 60.222135 11.99083 C 59.875699 11.651056 59.469303 11.411216 59.002947 11.291296 C 58.536591 11.171376 58.070235 11.171376 57.603879 11.297958 C 57.137523 11.424541 56.737789 11.657719 56.398016 11.997492 Z M 56.398016 11.997492 " transform="matrix(0.586328,0,0,0.586328,0.057276,0.145224)"/>
</g>
<path style=" stroke:none;fill-rule:nonzero;fill:rgb(1.568604%,7.058716%,33.729553%);fill-opacity:1;" d="M 18.820312 24.839844 C 18.734375 24.636719 18.632812 24.441406 18.507812 24.253906 C 18.375 24.066406 18.234375 23.886719 18.082031 23.714844 C 18.285156 23.835938 18.480469 23.964844 18.667969 24.109375 C 18.859375 24.261719 19.03125 24.429688 19.1875 24.617188 C 19.230469 24.664062 19.25 24.71875 19.246094 24.785156 C 19.242188 24.847656 19.21875 24.898438 19.167969 24.941406 C 19.121094 24.980469 19.066406 24.996094 19 24.992188 C 18.9375 24.984375 18.886719 24.957031 18.847656 24.90625 C 18.835938 24.886719 18.824219 24.863281 18.820312 24.839844 Z M 18.820312 24.839844 "/>
<path style=" stroke:none;fill-rule:nonzero;fill:rgb(1.568604%,7.058716%,33.729553%);fill-opacity:1;" d="M 34.328125 10.382812 C 34.128906 9.992188 33.898438 9.625 33.628906 9.28125 C 33.347656 8.941406 33.046875 8.617188 32.726562 8.308594 C 33.097656 8.5625 33.453125 8.839844 33.792969 9.132812 C 34.128906 9.445312 34.433594 9.785156 34.703125 10.152344 C 34.777344 10.269531 34.757812 10.371094 34.648438 10.453125 C 34.535156 10.535156 34.4375 10.523438 34.347656 10.417969 Z M 34.328125 10.382812 "/>
</g>
</svg>
