<?xml version="1.0" encoding="UTF-8"?>
<svg xmlns="http://www.w3.org/2000/svg" xmlns:xlink="http://www.w3.org/1999/xlink" width="45pt" height="44.999999pt" viewBox="0 0 45 44.999999" version="1.2">
<g id="surface1">
<path style=" stroke:none;fill-rule:nonzero;fill:rgb(36.859131%,9.01947%,92.158508%);fill-opacity:1;" d="M 22.5 5.683594 C 21.464844 5.683594 20.441406 5.785156 19.425781 5.984375 C 18.410156 6.1875 17.425781 6.484375 16.46875 6.882812 C 15.511719 7.277344 14.605469 7.765625 13.746094 8.339844 C 12.882812 8.914062 12.085938 9.566406 11.355469 10.296875 C 10.625 11.03125 9.972656 11.828125 9.394531 12.6875 C 8.820312 13.546875 8.335938 14.457031 7.941406 15.410156 C 7.542969 16.367188 7.246094 17.351562 7.042969 18.367188 C 6.839844 19.382812 6.738281 20.40625 6.738281 21.441406 C 6.738281 22.476562 6.839844 23.503906 7.042969 24.515625 C 7.246094 25.53125 7.542969 26.515625 7.941406 27.472656 C 8.335938 28.429688 8.820312 29.335938 9.394531 30.199219 C 9.972656 31.058594 10.625 31.855469 11.355469 32.585938 C 12.085938 33.316406 12.882812 33.972656 13.746094 34.546875 C 14.605469 35.121094 15.511719 35.605469 16.46875 36.003906 C 17.425781 36.398438 18.410156 36.699219 19.425781 36.898438 C 20.441406 37.101562 21.464844 37.203125 22.5 37.203125 C 23.535156 37.203125 24.558594 37.101562 25.574219 36.898438 C 26.589844 36.699219 27.574219 36.398438 28.53125 36.003906 C 29.488281 35.605469 30.394531 35.121094 31.253906 34.546875 C 32.117188 33.972656 32.914062 33.316406 33.644531 32.585938 C 34.375 31.855469 35.027344 31.058594 35.605469 30.199219 C 36.179688 29.335938 36.664062 28.429688 37.058594 27.472656 C 37.457031 26.515625 37.753906 25.53125 37.957031 24.515625 C 38.160156 23.503906 38.261719 22.476562 38.261719 21.441406 C 38.261719 20.40625 38.160156 19.382812 37.957031 18.367188 C 37.753906 17.351562 37.457031 16.367188 37.058594 15.410156 C 36.664062 14.457031 36.179688 13.546875 35.605469 12.6875 C 35.027344 11.828125 34.375 11.03125 33.644531 10.296875 C 32.914062 9.566406 32.117188 8.914062 31.253906 8.339844 C 30.394531 7.765625 29.488281 7.277344 28.53125 6.882812 C 27.574219 6.484375 26.589844 6.1875 25.574219 5.984375 C 24.558594 5.785156 23.535156 5.683594 22.5 5.683594 Z M 22.5 5.683594 "/>
<path style=" stroke:none;fill-rule:nonzero;fill:rgb(100%,100%,100%);fill-opacity:1;" d="M 22.320312 8.800781 C 21.5 8.800781 20.691406 8.878906 19.886719 9.039062 C 19.085938 9.199219 18.308594 9.433594 17.550781 9.75 C 16.792969 10.0625 16.078125 10.445312 15.394531 10.898438 C 14.714844 11.355469 14.085938 11.871094 13.507812 12.449219 C 12.929688 13.027344 12.410156 13.65625 11.957031 14.339844 C 11.503906 15.019531 11.117188 15.738281 10.804688 16.492188 C 10.492188 17.25 10.257812 18.027344 10.097656 18.832031 C 9.9375 19.632812 9.855469 20.445312 9.855469 21.261719 C 9.855469 22.082031 9.9375 22.890625 10.097656 23.695312 C 10.257812 24.496094 10.492188 25.277344 10.804688 26.03125 C 11.117188 26.789062 11.503906 27.507812 11.957031 28.1875 C 12.410156 28.867188 12.929688 29.496094 13.507812 30.074219 C 14.085938 30.652344 14.714844 31.171875 15.394531 31.625 C 16.078125 32.078125 16.792969 32.464844 17.550781 32.777344 C 18.308594 33.089844 19.085938 33.328125 19.886719 33.484375 C 20.691406 33.644531 21.5 33.726562 22.320312 33.726562 C 23.136719 33.726562 23.949219 33.644531 24.75 33.484375 C 25.554688 33.328125 26.332031 33.089844 27.089844 32.777344 C 27.84375 32.464844 28.5625 32.078125 29.242188 31.625 C 29.925781 31.171875 30.554688 30.652344 31.132812 30.074219 C 31.710938 29.496094 32.226562 28.867188 32.683594 28.1875 C 33.136719 27.507812 33.519531 26.789062 33.835938 26.03125 C 34.148438 25.277344 34.382812 24.496094 34.542969 23.695312 C 34.703125 22.890625 34.78125 22.082031 34.78125 21.261719 C 34.78125 20.445312 34.703125 19.632812 34.542969 18.832031 C 34.382812 18.027344 34.148438 17.25 33.835938 16.492188 C 33.519531 15.738281 33.136719 15.019531 32.683594 14.339844 C 32.226562 13.65625 31.710938 13.027344 31.132812 12.449219 C 30.554688 11.871094 29.925781 11.355469 29.242188 10.898438 C 28.5625 10.445312 27.84375 10.0625 27.089844 9.75 C 26.332031 9.433594 25.554688 9.199219 24.75 9.039062 C 23.949219 8.878906 23.136719 8.800781 22.320312 8.800781 Z M 22.320312 8.800781 "/>
<path style=" stroke:none;fill-rule:nonzero;fill:rgb(36.859131%,9.01947%,92.158508%);fill-opacity:1;" d="M 1.890625 32.222656 L 18.75 16.613281 L 21.230469 19.292969 L 4.371094 34.902344 Z M 1.890625 32.222656 "/>
<path style=" stroke:none;fill-rule:nonzero;fill:rgb(36.859131%,9.01947%,92.158508%);fill-opacity:1;" d="M 18.765625 16.609375 L 27.050781 25.617188 L 24.363281 28.089844 L 16.078125 19.082031 Z M 18.765625 16.609375 "/>
<path style=" stroke:none;fill-rule:nonzero;fill:rgb(100%,100%,100%);fill-opacity:1;" d="M 2.355469 36.347656 L 15.578125 24.683594 L 18.074219 27.511719 L 4.847656 39.175781 Z M 2.355469 36.347656 "/>
<path style=" stroke:none;fill-rule:nonzero;fill:rgb(36.859131%,9.01947%,92.158508%);fill-opacity:1;" d="M 21.886719 25.398438 L 40.878906 7.929688 L 43.351562 10.617188 L 24.359375 28.085938 Z M 21.886719 25.398438 "/>
<path style=" stroke:none;fill-rule:nonzero;fill:rgb(100%,100%,100%);fill-opacity:1;" d="M 24.851562 17.535156 L 34.808594 8.363281 L 37.363281 11.136719 L 27.40625 20.308594 Z M 24.851562 17.535156 "/>
</g>
</svg>
