<?xml version="1.0" encoding="UTF-8"?>
<svg xmlns="http://www.w3.org/2000/svg" xmlns:xlink="http://www.w3.org/1999/xlink" width="37.5pt" height="37.499999pt" viewBox="0 0 37.5 37.499999" version="1.2">
<defs>
<clipPath id="clip1">
  <path d="M 1.273438 1.273438 L 35.023438 1.273438 L 35.023438 35.023438 L 1.273438 35.023438 Z M 1.273438 1.273438 "/>
</clipPath>
</defs>
<g id="surface1">
<g clip-path="url(#clip1)" clip-rule="nonzero">
<path style=" stroke:none;fill-rule:nonzero;fill:rgb(29.019165%,67.449951%,23.529053%);fill-opacity:1;" d="M 18.75 24.398438 C 18.476562 24.671875 18.140625 24.847656 17.785156 24.925781 C 17.640625 24.960938 17.492188 24.980469 17.339844 24.980469 C 16.875 24.980469 16.410156 24.808594 16.035156 24.480469 C 16 24.453125 15.964844 24.429688 15.933594 24.398438 L 10.238281 18.707031 C 9.460938 17.929688 9.460938 16.664062 10.238281 15.886719 C 11.019531 15.109375 12.28125 15.109375 13.058594 15.886719 L 17.339844 20.171875 L 30.664062 6.851562 C 27.574219 3.433594 23.109375 1.28125 18.148438 1.28125 C 8.847656 1.28125 1.28125 8.847656 1.28125 18.148438 C 1.28125 27.453125 8.847656 35.019531 18.148438 35.019531 C 27.453125 35.019531 35.019531 27.453125 35.019531 18.148438 C 35.019531 15.257812 34.285156 12.535156 32.996094 10.152344 Z M 18.75 24.398438 "/>
</g>
</g>
</svg>
