<?xml version="1.0" encoding="UTF-8"?>
<svg xmlns="http://www.w3.org/2000/svg" xmlns:xlink="http://www.w3.org/1999/xlink" width="37.5pt" height="37.499999pt" viewBox="0 0 37.5 37.499999" version="1.2">
<defs>
<clipPath id="clip1">
  <path d="M 1.351562 1.351562 L 36.53125 1.351562 L 36.53125 36.53125 L 1.351562 36.53125 Z M 1.351562 1.351562 "/>
</clipPath>
<clipPath id="clip2">
  <path d="M 1.351562 1.351562 L 12 1.351562 L 12 7 L 1.351562 7 Z M 1.351562 1.351562 "/>
</clipPath>
<clipPath id="clip3">
  <path d="M 11 1.351562 L 36.53125 1.351562 L 36.53125 7 L 11 7 Z M 11 1.351562 "/>
</clipPath>
<clipPath id="clip4">
  <path d="M 4 8 L 33 8 L 33 36.53125 L 4 36.53125 Z M 4 8 "/>
</clipPath>
<clipPath id="clip5">
  <path d="M 7 32 L 21 32 L 21 36.53125 L 7 36.53125 Z M 7 32 "/>
</clipPath>
<clipPath id="clip6">
  <path d="M 21 33 L 24 33 L 24 36.53125 L 21 36.53125 Z M 21 33 "/>
</clipPath>
</defs>
<g id="surface1">
<g clip-path="url(#clip1)" clip-rule="nonzero">
<path style=" stroke:none;fill-rule:nonzero;fill:rgb(22.349548%,30.198669%,36.079407%);fill-opacity:1;" d="M 36.53125 36.53125 L 1.351562 36.53125 L 1.351562 1.351562 L 36.53125 1.351562 L 36.53125 36.53125 "/>
</g>
<g clip-path="url(#clip2)" clip-rule="nonzero">
<path style=" stroke:none;fill-rule:nonzero;fill:rgb(49.01886%,55.288696%,61.178589%);fill-opacity:1;" d="M 11.054688 6.203125 L 1.351562 6.203125 L 1.351562 1.351562 L 11.054688 1.351562 L 11.054688 6.203125 "/>
</g>
<path style=" stroke:none;fill-rule:nonzero;fill:rgb(88.238525%,27.449036%,16.859436%);fill-opacity:1;" d="M 4.382812 4.382812 L 3.167969 4.382812 L 3.167969 3.167969 L 4.382812 3.167969 L 4.382812 4.382812 "/>
<path style=" stroke:none;fill-rule:nonzero;fill:rgb(97.648621%,73.329163%,29.40979%);fill-opacity:1;" d="M 6.808594 4.382812 L 5.597656 4.382812 L 5.597656 3.167969 L 6.808594 3.167969 L 6.808594 4.382812 "/>
<path style=" stroke:none;fill-rule:nonzero;fill:rgb(33.329773%,70.979309%,41.569519%);fill-opacity:1;" d="M 9.234375 4.382812 L 8.023438 4.382812 L 8.023438 3.167969 L 9.234375 3.167969 L 9.234375 4.382812 "/>
<g clip-path="url(#clip3)" clip-rule="nonzero">
<path style=" stroke:none;fill-rule:nonzero;fill:rgb(66.668701%,74.508667%,80.778503%);fill-opacity:1;" d="M 36.53125 6.203125 L 11.054688 6.203125 L 11.054688 1.351562 L 36.53125 1.351562 L 36.53125 6.203125 "/>
</g>
<g clip-path="url(#clip4)" clip-rule="nonzero">
<path style=" stroke:none;fill-rule:nonzero;fill:rgb(95.689392%,95.689392%,90.19928%);fill-opacity:1;" d="M 32.890625 36.53125 L 4.988281 36.53125 L 4.988281 8.628906 L 32.890625 8.628906 L 32.890625 36.53125 "/>
</g>
<path style=" stroke:none;fill-rule:nonzero;fill:rgb(88.238525%,27.449036%,16.859436%);fill-opacity:1;" d="M 9.234375 12.875 L 11.660156 12.875 L 11.660156 11.660156 L 9.234375 11.660156 Z M 9.234375 15.300781 L 11.660156 15.300781 L 11.660156 14.085938 L 9.234375 14.085938 Z M 12.269531 16.515625 L 8.628906 16.515625 C 8.292969 16.515625 8.023438 16.242188 8.023438 15.90625 L 8.023438 11.054688 C 8.023438 10.71875 8.292969 10.449219 8.628906 10.449219 L 12.269531 10.449219 C 12.601562 10.449219 12.875 10.71875 12.875 11.054688 L 12.875 15.90625 C 12.875 16.242188 12.601562 16.515625 12.269531 16.515625 "/>
<path style=" stroke:none;fill-rule:nonzero;fill:rgb(88.238525%,27.449036%,16.859436%);fill-opacity:1;" d="M 17.121094 16.515625 L 14.695312 16.515625 C 14.359375 16.515625 14.085938 16.242188 14.085938 15.90625 L 14.085938 11.054688 C 14.085938 10.71875 14.359375 10.449219 14.695312 10.449219 C 15.027344 10.449219 15.300781 10.71875 15.300781 11.054688 L 15.300781 15.300781 L 17.121094 15.300781 C 17.453125 15.300781 17.726562 15.574219 17.726562 15.90625 C 17.726562 16.242188 17.453125 16.515625 17.121094 16.515625 "/>
<path style=" stroke:none;fill-rule:nonzero;fill:rgb(88.238525%,27.449036%,16.859436%);fill-opacity:1;" d="M 20.757812 11.660156 C 20.425781 11.660156 20.152344 11.933594 20.152344 12.269531 L 20.152344 14.695312 C 20.152344 15.027344 20.425781 15.300781 20.757812 15.300781 L 21.972656 15.300781 C 22.308594 15.300781 22.578125 15.027344 22.578125 14.695312 L 22.578125 12.269531 C 22.578125 11.933594 22.308594 11.660156 21.972656 11.660156 Z M 21.972656 16.515625 L 20.757812 16.515625 C 19.753906 16.515625 18.941406 15.699219 18.941406 14.695312 L 18.941406 12.269531 C 18.941406 11.261719 19.753906 10.449219 20.757812 10.449219 L 21.972656 10.449219 C 22.976562 10.449219 23.792969 11.261719 23.792969 12.269531 L 23.792969 14.695312 C 23.792969 15.699219 22.976562 16.515625 21.972656 16.515625 "/>
<path style=" stroke:none;fill-rule:nonzero;fill:rgb(88.238525%,27.449036%,16.859436%);fill-opacity:1;" d="M 29.25 16.515625 L 25.613281 16.515625 C 25.277344 16.515625 25.003906 16.242188 25.003906 15.90625 L 25.003906 11.054688 C 25.003906 10.71875 25.277344 10.449219 25.613281 10.449219 L 29.25 10.449219 C 29.585938 10.449219 29.859375 10.71875 29.859375 11.054688 C 29.859375 11.390625 29.585938 11.660156 29.25 11.660156 L 26.21875 11.660156 L 26.21875 15.300781 L 28.644531 15.300781 L 28.644531 14.085938 L 28.039062 14.085938 C 27.703125 14.085938 27.429688 13.816406 27.429688 13.480469 C 27.429688 13.148438 27.703125 12.875 28.039062 12.875 L 29.25 12.875 C 29.585938 12.875 29.859375 13.148438 29.859375 13.480469 L 29.859375 15.90625 C 29.859375 16.242188 29.585938 16.515625 29.25 16.515625 "/>
<path style=" stroke:none;fill-rule:nonzero;fill:rgb(66.668701%,74.508667%,80.778503%);fill-opacity:1;" d="M 20.152344 20.757812 L 4.988281 20.757812 L 4.988281 18.332031 L 20.152344 18.332031 L 20.152344 20.757812 "/>
<path style=" stroke:none;fill-rule:nonzero;fill:rgb(22.349548%,30.198669%,36.079407%);fill-opacity:1;" d="M 23.1875 32.285156 L 21.972656 32.285156 L 21.972656 17.726562 L 23.1875 17.726562 L 23.1875 32.285156 "/>
<path style=" stroke:none;fill-rule:nonzero;fill:rgb(22.349548%,30.198669%,36.079407%);fill-opacity:1;" d="M 12.875 23.792969 L 6.808594 23.792969 L 6.808594 22.578125 L 12.875 22.578125 L 12.875 23.792969 "/>
<path style=" stroke:none;fill-rule:nonzero;fill:rgb(22.349548%,30.198669%,36.079407%);fill-opacity:1;" d="M 10.449219 26.21875 L 6.808594 26.21875 L 6.808594 25.003906 L 10.449219 25.003906 L 10.449219 26.21875 "/>
<path style=" stroke:none;fill-rule:nonzero;fill:rgb(22.349548%,30.198669%,36.079407%);fill-opacity:1;" d="M 20.757812 23.792969 L 14.085938 23.792969 L 14.085938 22.578125 L 20.757812 22.578125 L 20.757812 23.792969 "/>
<path style=" stroke:none;fill-rule:nonzero;fill:rgb(22.349548%,30.198669%,36.079407%);fill-opacity:1;" d="M 17.121094 28.644531 L 6.808594 28.644531 L 6.808594 27.429688 L 17.121094 27.429688 L 17.121094 28.644531 "/>
<path style=" stroke:none;fill-rule:nonzero;fill:rgb(22.349548%,30.198669%,36.079407%);fill-opacity:1;" d="M 20.757812 26.21875 L 11.660156 26.21875 L 11.660156 25.003906 L 20.757812 25.003906 L 20.757812 26.21875 "/>
<path style=" stroke:none;fill-rule:nonzero;fill:rgb(22.349548%,30.198669%,36.079407%);fill-opacity:1;" d="M 20.757812 28.644531 L 18.332031 28.644531 L 18.332031 27.429688 L 20.757812 27.429688 L 20.757812 28.644531 "/>
<path style=" stroke:none;fill-rule:nonzero;fill:rgb(22.349548%,30.198669%,36.079407%);fill-opacity:1;" d="M 20.757812 31.070312 L 6.808594 31.070312 L 6.808594 29.859375 L 20.757812 29.859375 L 20.757812 31.070312 "/>
<g clip-path="url(#clip5)" clip-rule="nonzero">
<path style=" stroke:none;fill-rule:nonzero;fill:rgb(66.668701%,74.508667%,80.778503%);fill-opacity:1;" d="M 20.152344 36.53125 L 7.414062 36.53125 L 7.414062 32.890625 L 20.152344 32.890625 L 20.152344 36.53125 "/>
</g>
<g clip-path="url(#clip6)" clip-rule="nonzero">
<path style=" stroke:none;fill-rule:nonzero;fill:rgb(22.349548%,30.198669%,36.079407%);fill-opacity:1;" d="M 23.1875 36.53125 L 21.972656 36.53125 L 21.972656 33.496094 L 23.1875 33.496094 L 23.1875 36.53125 "/>
</g>
<path style=" stroke:none;fill-rule:nonzero;fill:rgb(66.668701%,74.508667%,80.778503%);fill-opacity:1;" d="M 32.890625 26.824219 L 25.003906 26.824219 L 25.003906 18.332031 L 32.890625 18.332031 L 32.890625 26.824219 "/>
<path style=" stroke:none;fill-rule:nonzero;fill:rgb(22.349548%,30.198669%,36.079407%);fill-opacity:1;" d="M 31.675781 29.859375 L 24.398438 29.859375 L 24.398438 28.644531 L 31.675781 28.644531 L 31.675781 29.859375 "/>
<path style=" stroke:none;fill-rule:nonzero;fill:rgb(22.349548%,30.198669%,36.079407%);fill-opacity:1;" d="M 31.675781 29.859375 L 24.398438 29.859375 L 24.398438 28.644531 L 31.675781 28.644531 L 31.675781 29.859375 "/>
<path style=" stroke:none;fill-rule:nonzero;fill:rgb(22.349548%,30.198669%,36.079407%);fill-opacity:1;" d="M 31.675781 29.859375 L 24.398438 29.859375 L 24.398438 28.644531 L 31.675781 28.644531 L 31.675781 29.859375 "/>
<path style=" stroke:none;fill-rule:nonzero;fill:rgb(22.349548%,30.198669%,36.079407%);fill-opacity:1;" d="M 26.824219 32.285156 L 24.398438 32.285156 L 24.398438 31.070312 L 26.824219 31.070312 L 26.824219 32.285156 "/>
<path style=" stroke:none;fill-rule:nonzero;fill:rgb(22.349548%,30.198669%,36.079407%);fill-opacity:1;" d="M 31.675781 32.285156 L 28.039062 32.285156 L 28.039062 31.070312 L 31.675781 31.070312 L 31.675781 32.285156 "/>
<path style=" stroke:none;fill-rule:nonzero;fill:rgb(22.349548%,30.198669%,36.079407%);fill-opacity:1;" d="M 28.644531 34.710938 L 24.398438 34.710938 L 24.398438 33.496094 L 28.644531 33.496094 L 28.644531 34.710938 "/>
<path style=" stroke:none;fill-rule:nonzero;fill:rgb(22.349548%,30.198669%,36.079407%);fill-opacity:1;" d="M 31.675781 34.710938 L 29.859375 34.710938 L 29.859375 33.496094 L 31.675781 33.496094 L 31.675781 34.710938 "/>
</g>
</svg>
